<?xml version="1.0" encoding="utf-8"?>
<!-- Generator: Adobe Illustrator 23.0.3, SVG Export Plug-In . SVG Version: 6.00 Build 0)  -->
<svg version="1.1" id="Laag_1" xmlns="http://www.w3.org/2000/svg" xmlns:xlink="http://www.w3.org/1999/xlink" x="0px" y="0px"
	 viewBox="0 0 150 150" style="enable-background:new 0 0 150 150;" xml:space="preserve">
<style type="text/css">
	.st0{fill:#00A2AE;}
	.st1{clip-path:url(#SVGID_2_);fill:none;stroke:#E7443F;stroke-width:9.4569;}
</style>
<g>
	<path class="st0" d="M63.9,129.6h-2.5c-0.6,0-0.7,0.5-0.8,0.8l-2.6,11.1l-2.8-11.1c-0.2-0.6-0.5-0.8-0.8-0.8h-2.4
		c-0.4,0-0.7,0.3-0.8,0.8l-2.8,11.1L46,130.4c-0.2-0.7-0.6-0.8-0.8-0.8h-2.5c-0.3,0-0.6,0.3-0.6,0.6c0,0.1,0.1,0.5,0.2,0.8l4.3,15.6
		c0.1,0.4,0.4,0.6,0.8,0.6h2.5c0.4,0,0.7-0.3,0.8-0.6l2.8-11.6l2.9,11.6c0.1,0.3,0.3,0.6,0.8,0.6h2.5c0.4,0,0.7-0.3,0.8-0.6
		l4.3-15.8c0.1-0.2,0.1-0.4,0.1-0.5C64.5,129.9,64.3,129.6,63.9,129.6L63.9,129.6z M77.2,132.3v-1.9c0-0.4-0.4-0.8-0.8-0.8H67
		c-0.4,0-0.8,0.4-0.8,0.8v16c0,0.4,0.4,0.8,0.8,0.8h9.5c0.4,0,0.8-0.4,0.8-0.8v-1.9c0-0.4-0.4-0.8-0.8-0.8h-6.7V140H75
		c0.4,0,0.8-0.4,0.8-0.8v-1.9c0-0.4-0.4-0.8-0.8-0.8h-5.2V133h6.7C76.9,133,77.2,132.7,77.2,132.3L77.2,132.3z M92.3,129.6h-2
		c-0.4,0-0.8,0.4-0.8,0.8v10.3l-5.8-10.4c-0.1-0.2-0.5-0.6-0.9-0.6h-2.7c-0.4,0-0.8,0.4-0.8,0.8v16c0,0.4,0.4,0.8,0.8,0.8h2
		c0.4,0,0.8-0.4,0.8-0.8v-11.2l6.2,11c0.6,1,0.9,0.9,1.2,0.9h2c0.4,0,0.8-0.4,0.8-0.8v-16C93.1,130,92.7,129.6,92.3,129.6
		L92.3,129.6z M104.8,135h2.1c0.4,0,0.8-0.4,0.8-0.8c0-2.5-2.1-4.8-6-4.8c-4.3,0-6.3,2-6.3,4.9c0,6.7,8.9,4.5,8.9,8
		c0,1.5-0.8,2-2.8,2c-2.7,0-2.9-1.9-3-2.3c-0.1-0.3-0.3-0.7-0.7-0.7h-2c-0.4,0-0.8,0.4-0.8,0.8c0,2.4,2,5.4,6.5,5.4
		c3.2,0,6.4-1.4,6.4-5.2c0-6.9-8.9-4.8-8.9-8c0-1.4,1-1.7,2.6-1.7c1.6,0,2.2,0.9,2.4,1.8C104.2,134.8,104.4,135,104.8,135L104.8,135
		z"/>
	<path class="st0" d="M20.3,113.4l-5.5-15.7c-0.1-0.2-0.3-0.6-0.8-0.6h-2.8c-0.4,0-0.7,0.3-0.8,0.6l-5.7,15.9
		c-0.1,0.2-0.1,0.3-0.1,0.5c0,0.3,0.3,0.6,0.6,0.6h2.4c0.2,0,0.5-0.1,0.6-0.5l1-3h6.5l1,3c0.1,0.2,0.3,0.4,0.7,0.4h2.5
		c0.3,0,0.6-0.2,0.6-0.6C20.5,113.9,20.3,113.5,20.3,113.4L20.3,113.4z M10.3,107.9l2.2-6.6l2.1,6.6H10.3L10.3,107.9z M39.4,97.1
		h-3.4c-0.3,0-0.5,0.3-0.6,0.4l-4.3,12l-4.2-12.1c-0.1-0.2-0.3-0.4-0.6-0.4h-3.5c-0.4,0-0.8,0.4-0.8,0.8v16c0,0.4,0.4,0.8,0.8,0.8
		h1.9c0.4,0,0.8-0.4,0.8-0.8v-11.1l4,11.4c0.1,0.3,0.3,0.5,0.6,0.5h1.9c0.3,0,0.5-0.1,0.7-0.5l3.9-11.3v11c0,0.4,0.4,0.8,0.8,0.8
		h1.9c0.4,0,0.8-0.4,0.8-0.8v-16C40.1,97.5,39.8,97.1,39.4,97.1L39.4,97.1z M53.1,105.7c1.3-0.6,2.1-1.9,2.1-3.4V102
		c0-3.3-2.3-4.9-5.8-4.9h-5.8c-0.4,0-0.8,0.4-0.8,0.8v16c0,0.4,0.4,0.8,0.8,0.8h5.4c3.5,0,6.5-0.9,6.5-4.9v-0.2
		C55.6,107.9,54.9,106.5,53.1,105.7L53.1,105.7z M46.5,100.5h2.7c1.3,0,2.4,0.1,2.4,1.7v0.3c0,1.5-1.2,1.6-2.4,1.6h-2.7V100.5
		L46.5,100.5z M52,109.4c0,1.4-1,1.8-2.5,1.8h-3v-3.7h3c1.6,0,2.5,0.5,2.5,1.8V109.4L52,109.4z M67.8,97.1h2.1
		c0.4,0,0.8,0.4,0.8,0.8v9.9c0,4.4-2.7,7.1-6.7,7.1s-6.6-2.7-6.6-7.1v-9.9c0-0.4,0.4-0.8,0.8-0.8h2.1c0.4,0,0.8,0.4,0.8,0.8v9.9
		c0,2.6,1.2,3.7,3,3.7s3-1.1,3-3.7v-9.9C67,97.5,67.4,97.1,67.8,97.1L67.8,97.1z M84.3,113.8V112c0-0.4-0.4-0.8-0.8-0.8h-6.7V97.9
		c0-0.4-0.4-0.8-0.8-0.8H74c-0.4,0-0.8,0.4-0.8,0.8v16c0,0.4,0.4,0.8,0.8,0.8h9.5C83.9,114.6,84.3,114.3,84.3,113.8L84.3,113.8z
		 M101,113.4l-5.5-15.7c-0.1-0.2-0.3-0.6-0.8-0.6h-2.8c-0.4,0-0.7,0.3-0.8,0.6l-5.7,15.9c-0.1,0.2-0.1,0.3-0.1,0.5
		c0,0.3,0.3,0.6,0.6,0.6h2.4c0.2,0,0.5-0.1,0.6-0.5l1-3h6.5l1,3c0.1,0.2,0.3,0.4,0.7,0.4h2.5c0.3,0,0.6-0.2,0.6-0.6
		C101.2,113.9,101,113.5,101,113.4L101,113.4z M91,107.9l2.2-6.6l2.1,6.6H91L91,107.9z M115.7,97.1h-2c-0.4,0-0.8,0.4-0.8,0.8v10.3
		l-5.8-10.4c-0.1-0.2-0.5-0.6-0.9-0.6h-2.7c-0.4,0-0.8,0.4-0.8,0.8v16c0,0.4,0.4,0.8,0.8,0.8h2c0.4,0,0.8-0.4,0.8-0.8v-11.2l6.2,11
		c0.6,1,0.9,0.9,1.2,0.9h2c0.4,0,0.8-0.4,0.8-0.8v-16C116.5,97.5,116.2,97.1,115.7,97.1L115.7,97.1z M131.7,108.4h-2.6
		c-0.5,0-0.6,0.4-0.7,0.8c-0.1,1.2-1,2.3-2.9,2.3c-1.8,0-3.3-1.4-3.3-3.9v-3.3c0-2.6,1.5-4,3.3-4c1.8,0,2.7,1.2,2.9,2.4
		c0.1,0.5,0.4,0.7,0.6,0.7h2.6c0.4,0,0.6-0.3,0.6-0.6c-0.2-3-2.6-5.9-6.6-5.9c-4,0-6.9,3-6.9,7.3v3.4c0,4.4,2.9,7.3,6.9,7.3
		c4,0,6.4-3,6.6-5.9C132.3,108.7,132.1,108.4,131.7,108.4L131.7,108.4z M145.3,99.7v-1.9c0-0.4-0.4-0.8-0.8-0.8H135
		c-0.4,0-0.8,0.4-0.8,0.8v16c0,0.4,0.4,0.8,0.8,0.8h9.5c0.4,0,0.8-0.4,0.8-0.8V112c0-0.4-0.4-0.8-0.8-0.8h-6.7v-3.8h5.2
		c0.4,0,0.8-0.4,0.8-0.8v-1.9c0-0.4-0.4-0.8-0.8-0.8h-5.2v-3.5h6.7C145,100.5,145.3,100.2,145.3,99.7L145.3,99.7z"/>
	<g>
		<defs>
			<rect id="SVGID_1_" x="0" width="150" height="150"/>
		</defs>
		<clipPath id="SVGID_2_">
			<use xlink:href="#SVGID_1_"  style="overflow:visible;"/>
		</clipPath>
		<line class="st1" x1="2.3" y1="122" x2="147.7" y2="122"/>
	</g>
	<path class="st0" d="M117.7,37.5l-14.9-27.1l-12.9,7.8V2.6H60.1v15.6l-12.9-7.8L32.3,37.5l13,7.9l-13,7.8l14.9,27.1l12.9-7.8v15.6
		h29.9V72.4l12.9,7.8l14.9-27.1v0l-13-7.8L117.7,37.5L117.7,37.5L117.7,37.5z M53.2,45.3l3.4-2.1c0.7-0.4,1.5-0.4,2.2,0
		c0.7,0.4,1.1,1.2,1.1,2c0,0.9-0.4,1.6-1.1,2.1c-0.7,0.4-1.5,0.4-2.2,0L53.2,45.3L53.2,45.3z M64.1,65.1v-4c0-0.9,0.4-1.6,1.1-2
		c0.3-0.2,0.7-0.3,1.1-0.3c0.4,0,0.7,0.1,1.1,0.3c0.7,0.4,1.1,1.2,1.1,2c0,0.9-0.4,1.6-1.1,2L64.1,65.1L64.1,65.1z M85.9,61.1v4
		l-3.3-2c-0.7-0.4-1.1-1.2-1.1-2c0-0.9,0.4-1.6,1.1-2c0.3-0.2,0.7-0.3,1.1-0.3c0.4,0,0.7,0.1,1.1,0.3C85.4,59.4,85.9,60.2,85.9,61.1
		L85.9,61.1z M86.8,55.5c-1.9-1.2-4.2-1.2-6.2,0c-1.9,1.2-3,3.2-3,5.5c0,2.3,1.1,4.4,3,5.5l5.3,3.2V84H64.1V69.8l5.3-3.2
		c1.9-1.2,3-3.2,3-5.5c0-2.3-1.1-4.4-3-5.5c-1.9-1.2-4.2-1.2-6.2,0c-1.9,1.2-3,3.2-3,5.5v6.5l-11.6,7L37.7,54.7l11.6-7l5.3,3.2
		c0.9,0.6,2,0.9,3.1,0.9c1.1,0,2.1-0.3,3.1-0.9c1.9-1.2,3.1-3.2,3.1-5.5c0-2.3-1.1-4.4-3.1-5.5c-1.9-1.2-4.2-1.2-6.2,0L49.3,43
		l-11.6-7l10.9-19.9l11.6,7v6.5c0,2.3,1.1,4.4,3,5.5c0.9,0.6,2,0.9,3.1,0.9c1.1,0,2.1-0.3,3.1-0.9c1.9-1.2,3-3.2,3-5.5
		s-1.1-4.4-3-5.5l-5.3-3.2V6.7h21.8v14.1l-5.3,3.2c-1.9,1.2-3,3.2-3,5.5c0,2.3,1.1,4.4,3,5.5c0.9,0.6,2,0.9,3.1,0.9
		c1.1,0,2.1-0.3,3.1-0.9c1.9-1.2,3-3.2,3-5.5v-6.5l11.6-7L112.3,36l-11.6,7l-5.3-3.2c-1.9-1.2-4.2-1.2-6.2,0
		c-1.9,1.2-3.1,3.2-3.1,5.5c0,2.3,1.1,4.4,3.1,5.5c0.9,0.6,2,0.9,3.1,0.9c1.1,0,2.1-0.3,3.1-0.9l5.3-3.2l11.6,7l-10.9,19.9l-11.6-7
		v-6.5C89.8,58.7,88.7,56.7,86.8,55.5L86.8,55.5z M85.9,25.6v4c0,0.9-0.4,1.6-1.1,2c-0.7,0.4-1.5,0.4-2.1,0c-0.7-0.4-1.1-1.2-1.1-2
		c0-0.9,0.4-1.6,1.1-2L85.9,25.6L85.9,25.6z M64.1,29.6v-4l3.3,2c0.7,0.4,1.1,1.2,1.1,2c0,0.9-0.4,1.6-1.1,2c-0.7,0.4-1.5,0.4-2.1,0
		C64.6,31.2,64.1,30.5,64.1,29.6L64.1,29.6z M96.8,45.3l-3.4,2.1c-0.7,0.4-1.5,0.4-2.2,0c-0.7-0.4-1.1-1.2-1.1-2
		c0-0.9,0.4-1.6,1.1-2c0.3-0.2,0.7-0.3,1.1-0.3c0.4,0,0.7,0.1,1.1,0.3L96.8,45.3L96.8,45.3z"/>
</g>
</svg>
